<svg width="890" height="141" viewBox="0 0 890 141" fill="none" xmlns="http://www.w3.org/2000/svg">
<g clip-path="url(#clip0_205_18)">
<path d="M260.24 141C259.929 140.177 259.496 139.783 259.084 139.371C239.532 119.798 219.977 100.222 200.43 80.6433C191.975 72.1733 183.536 63.6868 175.078 55.2167C160.625 40.7455 160.134 16.8171 173.981 1.72521C174.437 1.23035 174.999 0.812037 175.187 0.21875C179.037 4.07922 182.898 7.95336 186.761 11.822C208.662 33.749 230.566 55.6733 252.464 77.6031C255.07 80.2114 257.659 82.8333 260.254 85.4525C267.274 92.5501 271.1 101.102 271.566 111.07C272.071 121.87 268.6 131.294 261.367 139.324C260.977 139.756 260.516 140.131 260.24 141.006V141Z" fill="#028488"/>
<path d="M791.97 0.117554C792.227 0.612415 792.579 1.01432 792.963 1.39982C820.913 29.3718 848.866 57.341 876.794 85.3349C884.729 93.2882 888.557 102.975 888.257 114.182C888.003 123.631 884.614 131.928 878.311 139.001C877.834 139.537 877.376 140.087 876.868 140.675C876.322 139.827 875.539 139.157 874.816 138.433C847.224 110.811 819.626 83.1941 792.041 55.5639C786.006 49.5162 782.205 42.2655 781.013 33.7818C779.272 21.4021 782.653 10.5425 791.045 1.26859C791.367 0.91316 791.648 0.522192 791.97 0.120288V0.117554Z" fill="#FDBD17"/>
<path d="M345.444 70.0653C345.444 92.8945 345.433 115.724 345.474 138.553C345.474 139.824 345.13 140.114 343.902 140.109C333.488 140.06 323.076 140.068 312.662 140.101C311.644 140.103 311.276 139.917 311.276 138.78C311.308 92.9848 311.308 47.1896 311.284 1.39435C311.284 0.325343 311.551 0.0300661 312.637 0.0355342C323.095 0.0792788 333.556 0.090215 344.014 0.027332C345.313 0.0191299 345.46 0.467513 345.46 1.57753C345.433 24.4068 345.438 47.236 345.438 70.0653H345.444Z" fill="#F0532D"/>
<path d="M34.321 70.0133C34.321 92.8344 34.3074 115.658 34.3537 138.479C34.3537 139.857 33.9527 140.117 32.6594 140.062C16.3925 139.381 2.63847 126.808 0.439359 110.783C0.0764782 108.148 0.0219096 105.553 0.0191812 102.937C-0.00537469 69.2259 8.21696e-05 35.5179 0.00553903 1.80994C0.00826746 -0.153099 -0.207279 0.0601566 1.75446 0.0601566C12.1198 0.0546885 22.4851 0.0792949 32.8476 0.0273481C34.07 0.02188 34.3483 0.358167 34.3456 1.54748C34.3101 24.3685 34.3183 47.1923 34.3183 70.0133H34.321Z" fill="#F59866"/>
<path d="M91.6316 70.0133C91.6316 47.2388 91.6425 24.4642 91.6016 1.68964C91.6016 0.388235 91.899 0.0164051 93.2359 0.0246072C103.598 0.0847561 113.964 0.0738199 124.329 0.0328093C125.431 0.0273412 125.789 0.267937 125.786 1.44084C125.753 36.5131 125.797 71.5882 125.745 106.66C125.721 123.119 112.583 137.842 96.4009 139.751C95.2768 139.885 94.139 139.928 93.0149 140.059C91.9917 140.18 91.5906 139.89 91.607 138.747C91.6725 134.012 91.6343 129.274 91.6343 124.536C91.6343 106.362 91.6343 88.1865 91.6343 70.0133H91.6316Z" fill="#F59866"/>
<path d="M652.523 140.204C629.831 122.409 618.248 98.9231 618.322 70.0844C618.396 41.3114 630.117 17.9216 652.96 0.144897V140.057C652.815 140.106 652.668 140.155 652.523 140.202V140.204Z" fill="#028488"/>
<path d="M491.095 0.161303C491.095 12.2321 491.095 24.1197 491.095 36.0101C491.095 70.0872 491.095 104.164 491.095 138.244C491.095 138.518 491.112 138.794 491.09 139.064C491.065 139.365 491.215 139.742 490.85 139.92C490.492 140.095 490.261 139.8 490.02 139.606C488.151 138.094 486.203 136.669 484.435 135.045C477.762 128.924 472.103 121.979 467.642 114.064C463.666 107.008 460.736 99.5437 458.826 91.6834C457.798 87.4565 457.132 83.1641 456.668 78.8252C456.387 76.1978 456.324 73.5567 456.283 70.9457C456.218 66.738 456.444 62.5057 457.045 58.3198C457.885 52.469 459.165 46.7138 461.118 41.1309C464.619 31.1271 469.664 21.9981 476.526 13.8835C480.594 9.07428 485.076 4.73536 490.157 1.01432C490.441 0.806537 490.683 0.538601 491.098 0.158569L491.095 0.161303Z" fill="#EDB9D0"/>
<path d="M447.299 139.947C446.941 140.221 446.524 140.07 446.142 140.07C433.141 140.079 420.14 140.065 407.136 140.101C406.151 140.101 405.589 139.767 405.024 138.99C391.306 120.049 377.571 101.119 363.792 82.2208C363.012 81.1518 363.064 80.6351 363.997 79.7137C371.407 72.3865 378.761 65.0018 386.097 57.6035C386.804 56.8899 387.112 56.7724 387.775 57.6883C407.477 84.8838 427.212 112.055 446.939 139.234C447.089 139.442 447.351 139.606 447.299 139.947Z" fill="#F0532D"/>
<path d="M710.385 0.276111C711.626 1.2713 712.835 2.21455 714.016 3.1906C728.212 14.9388 737.448 29.842 742.165 47.6215C743.901 54.1613 744.785 60.8187 745.049 67.5746C745.09 68.619 744.831 68.8787 743.803 68.8732C733.033 68.8377 722.262 68.8431 711.492 68.865C710.671 68.865 710.295 68.7502 710.295 67.7741C710.319 45.3687 710.308 22.9659 710.306 0.560451C710.306 0.47843 710.352 0.393674 710.385 0.273376V0.276111Z" fill="#028488"/>
<path d="M548.393 0.235107C552.062 3.14139 555.65 5.9766 558.81 9.28205C567.101 17.9572 573.409 27.8927 577.592 39.1788C580.241 46.3256 581.835 53.7048 582.722 61.248C582.97 63.3614 582.926 65.5104 583.065 67.6402C583.123 68.5451 582.891 68.9306 581.884 68.9279C571.112 68.8951 560.34 68.8924 549.568 68.9334C548.401 68.9388 548.382 68.3756 548.382 67.5062C548.398 54.7984 548.393 42.0933 548.393 29.3855C548.393 20.0952 548.393 10.8022 548.393 1.5119C548.393 1.11547 548.393 0.719033 548.393 0.237841V0.235107Z" fill="#EDB9D0"/>
<path d="M889.975 39.2964C889.018 38.8097 888.587 38.1481 888.052 37.615C875.99 25.5551 863.941 13.487 851.887 1.41898C851.663 1.19478 851.404 0.992465 851.218 0.738199C850.913 0.322625 851.024 0.0601571 851.567 0.054689C851.794 0.054689 852.023 0.057423 852.249 0.057423C864.336 0.057423 876.423 0.0765613 888.51 0.0273486C889.73 0.0218805 890.005 0.355434 890.003 1.54474C889.956 13.6565 889.975 25.7684 889.975 37.8802C889.975 38.2766 889.975 38.673 889.975 39.2964Z" fill="#FDBD17"/>
<path d="M780.937 101.657C782.003 102.773 783.048 103.91 784.14 105.004C795.58 116.47 807.029 127.929 818.474 139.39C818.668 139.584 818.859 139.775 819.05 139.972C819.211 140.136 819.38 140.308 819.257 140.56C819.132 140.814 818.873 140.743 818.657 140.757C818.521 140.765 818.384 140.757 818.248 140.757C806.068 140.757 793.886 140.748 781.706 140.773C780.814 140.773 780.544 140.522 780.546 139.619C780.574 127.185 780.566 114.75 780.568 102.319C780.568 102.155 780.593 101.991 780.604 101.824C780.716 101.769 780.827 101.715 780.939 101.657H780.937Z" fill="#FDBD17"/>
<path d="M163.962 101.384C171.045 108.517 177.836 115.366 184.638 122.201C190.384 127.972 196.152 133.727 201.898 139.499C202.198 139.802 202.812 140.043 202.616 140.546C202.411 141.068 201.806 140.77 201.394 140.773C189.345 140.789 177.299 140.779 165.25 140.8C164.361 140.8 163.861 140.765 163.867 139.608C163.91 127.218 163.894 114.824 163.897 102.434C163.897 102.226 163.921 102.018 163.965 101.386L163.962 101.384Z" fill="#028488"/>
<path d="M273.099 39.4467C264.227 30.5283 255.624 21.8778 247.016 13.2355C243.032 9.23558 239.035 5.25208 235.054 1.24944C234.784 0.976039 234.249 0.76005 234.432 0.292529C234.623 -0.196865 235.158 0.0738055 235.526 0.0738055C247.621 0.0601353 259.719 0.0683374 271.814 0.0464651C272.709 0.0464651 273.189 0.095678 273.187 1.24398C273.143 13.6374 273.159 26.0335 273.159 38.4269C273.159 38.6347 273.138 38.8453 273.102 39.4467H273.099Z" fill="#028488"/>
<path d="M745.047 102.472C745.047 114.852 745.039 127.141 745.06 139.431C745.06 140.407 744.809 140.751 743.759 140.748C731.901 140.71 720.043 140.724 708.186 140.71C707.858 140.71 707.405 140.962 707.201 140.535C707.007 140.131 707.381 139.882 707.635 139.628C719.972 127.27 732.31 114.914 744.654 102.562C744.706 102.51 744.815 102.521 745.044 102.472H745.047Z" fill="#028488"/>
<path d="M583.06 102.114C583.06 111.5 583.06 120.424 583.06 129.345C583.06 132.713 583.022 136.084 583.082 139.453C583.101 140.533 582.762 140.833 581.687 140.831C569.963 140.795 558.239 140.811 546.515 140.798C546.09 140.798 545.503 141.044 545.263 140.568C544.963 139.98 545.601 139.699 545.926 139.371C556.747 128.514 567.579 117.665 578.405 106.814C579.87 105.345 581.325 103.866 583.057 102.111L583.06 102.114Z" fill="#EDB9D0"/>
</g>
<defs>
<clipPath id="clip0_205_18">
<rect width="890" height="141" fill="white"/>
</clipPath>
</defs>
</svg>
