<svg width="145" height="156" viewBox="0 0 145 156" fill="none" xmlns="http://www.w3.org/2000/svg">
<g clip-path="url(#clip0_205_2)">
<path d="M4.677 0H145V155.914H4.677V0Z" fill="#D0AB7C"/>
<g filter="url(#filter0_d_205_2)">
<path d="M0 0.110962H140.323V151.348H0V0.110962Z" fill="black"/>
</g>
<path d="M0 0.110962H140.323V151.348H0V0.110962Z" fill="#07283B"/>
<path d="M117.277 107.958L117.994 109.457L117.663 109.58C116.58 110.004 115.708 110.57 115.047 111.282C114.319 112.064 113.956 112.912 113.956 113.824C113.956 114.15 113.994 114.464 114.07 114.769C114.146 115.073 114.27 115.41 114.444 115.779C114.618 116.149 114.862 116.561 115.177 117.018C115.492 117.474 115.888 118.006 116.366 118.615C116.952 119.375 117.429 120.038 117.798 120.603C118.125 121.096 118.425 121.607 118.694 122.134C118.922 122.591 119.079 123.03 119.166 123.454C119.253 123.878 119.296 124.318 119.296 124.774C119.296 127.555 117.684 129.539 114.458 130.727L114.151 130.836L113.272 129.304L113.587 129.224C114.721 128.91 115.637 128.41 116.333 127.724C117.093 126.974 117.473 126.11 117.473 125.133C117.484 124.344 117.311 123.563 116.968 122.852C116.784 122.46 116.539 122.032 116.235 121.564C115.864 121.002 115.473 120.453 115.063 119.918C114.579 119.29 114.112 118.649 113.663 117.995C113.338 117.526 113.044 117.036 112.783 116.529C112.583 116.141 112.431 115.731 112.328 115.307C112.241 114.927 112.198 114.539 112.198 114.15C112.198 112.76 112.604 111.57 113.418 110.581C114.233 109.593 115.517 108.718 117.277 107.958ZM60.427 108.186C60.797 108.186 61.155 108.235 61.502 108.333C61.792 108.414 62.134 108.545 62.529 108.724L62.772 108.838L62.121 110.435L61.952 110.298C61.5155 109.962 60.9792 109.78 60.428 109.783C58.452 109.783 57.464 112.825 57.464 118.908C57.464 120.842 57.514 122.46 57.611 123.764C57.708 125.067 57.866 126.116 58.083 126.909C58.3 127.702 58.593 128.267 58.963 128.603C59.331 128.94 59.798 129.108 60.363 129.108C60.799 129.108 61.236 128.992 61.673 128.759L61.86 128.652V120.407H58.962L59.483 118.745H63.651V129.63L63.427 129.777C63.039 130.016 62.587 130.217 62.072 130.379C61.4774 130.571 60.8568 130.67 60.232 130.673C59.732 130.673 59.255 130.575 58.799 130.379C58.343 130.184 57.974 129.934 57.692 129.629C57.3021 129.184 56.9787 128.685 56.732 128.147C56.46 127.571 56.243 126.887 56.08 126.094C55.9013 125.179 55.7817 124.254 55.722 123.324C55.6406 122.103 55.6026 120.88 55.608 119.657C55.608 118.745 55.635 117.849 55.689 116.969C55.744 116.089 55.819 115.274 55.917 114.525C56.015 113.775 56.134 113.096 56.276 112.488C56.416 111.879 56.574 111.391 56.748 111.021C57.16 110.109 57.681 109.408 58.311 108.919C58.9122 108.44 59.6593 108.181 60.428 108.186H60.427ZM77.837 108.121C78.531 108.121 79.191 108.292 79.817 108.636L80.051 108.773L79.334 110.369L79.127 110.233C78.585 109.889 78.111 109.718 77.706 109.718C76.664 109.718 75.909 110.565 75.443 112.26C74.976 113.954 74.743 116.67 74.743 120.407C74.743 122.015 74.791 123.362 74.889 124.448C74.987 125.534 75.144 126.42 75.361 127.104C75.578 127.789 75.871 128.277 76.241 128.571C76.61 128.864 77.055 129.011 77.576 129.011C77.901 129.011 78.211 128.956 78.504 128.848C78.738 128.761 78.99 128.632 79.259 128.462L79.464 128.326L80.181 129.76L79.988 129.9C79.27 130.394 78.433 130.64 77.478 130.64C75.85 130.64 74.656 129.804 73.896 128.13C73.136 126.458 72.756 123.829 72.756 120.244C72.756 116.116 73.169 113.064 73.994 111.086C74.818 109.109 76.1 108.121 77.837 108.121ZM86.915 108.153C87.87 108.153 88.663 108.468 89.292 109.098C90.16 110.033 90.725 111.173 90.985 112.52C91.225 113.715 91.403 114.97 91.523 116.284C91.643 117.599 91.702 118.951 91.702 120.342C91.7068 121.446 91.6688 122.549 91.588 123.65C91.512 124.617 91.388 125.464 91.213 126.192C91.0619 126.857 90.8326 127.502 90.53 128.114C90.2648 128.643 89.9246 129.132 89.52 129.564C89.2131 129.914 88.8285 130.188 88.397 130.364C87.9477 130.549 87.466 130.643 86.98 130.64C86.502 130.64 86.047 130.548 85.612 130.363C85.1991 130.193 84.8232 129.944 84.505 129.63C83.832 128.913 83.355 128.044 83.072 127.023C82.7621 125.773 82.5336 124.505 82.388 123.226C82.2296 121.792 82.1535 120.351 82.16 118.908C82.16 118.191 82.182 117.468 82.226 116.741C82.2662 116.049 82.3259 115.359 82.405 114.671C82.481 114.019 82.573 113.422 82.682 112.879C82.79 112.336 82.909 111.89 83.04 111.543C83.865 109.283 85.156 108.153 86.915 108.153ZM34.78 108.153C35.735 108.153 36.528 108.468 37.157 109.098C38.026 110.033 38.59 111.173 38.851 112.52C39.09 113.715 39.269 114.97 39.388 116.284C39.508 117.599 39.568 118.951 39.568 120.342C39.5725 121.446 39.5341 122.549 39.453 123.65C39.377 124.617 39.253 125.464 39.079 126.192C38.9275 126.857 38.6979 127.503 38.395 128.114C38.1298 128.643 37.7896 129.132 37.385 129.564C37.0781 129.914 36.6935 130.188 36.262 130.364C35.8127 130.549 35.331 130.643 34.845 130.64C34.368 130.64 33.912 130.548 33.478 130.363C33.0648 130.193 32.6885 129.944 32.37 129.63C31.697 128.913 31.22 128.044 30.938 127.023C30.6281 125.773 30.3996 124.505 30.254 123.226C30.0956 121.792 30.0195 120.351 30.026 118.908C30.026 118.191 30.047 117.468 30.091 116.741C30.134 116.013 30.194 115.323 30.27 114.671C30.346 114.019 30.438 113.422 30.547 112.879C30.655 112.336 30.775 111.89 30.905 111.543C31.73 109.283 33.022 108.153 34.78 108.153ZM44.12 108.316L50.176 123.177V108.544H51.968V130.608H51.316L45.292 116.236V130.282H43.468V108.316H44.12ZM110.706 108.544V110.239H108.622V130.282H106.766V110.239H104.454L105.04 108.544H110.706ZM25.278 108.544V128.652H28.437V130.282H23.487V108.544H25.278ZM98.924 108.023L103.614 130.282H101.692L100.748 125.784H97.003L96.157 130.282H94.267L95.049 125.784H93.975L94.235 124.22H95.342L98.338 108.023H98.924ZM34.748 109.75C33.836 109.75 33.158 110.522 32.712 112.064C32.267 113.607 32.045 115.964 32.045 119.136C32.045 124.133 32.545 127.229 33.543 128.424C33.847 128.794 34.303 128.978 34.91 128.978C35.41 128.978 35.828 128.826 36.164 128.522C36.501 128.218 36.777 127.707 36.994 126.99C37.212 126.273 37.364 125.339 37.45 124.187C37.537 123.036 37.58 121.613 37.58 119.918C37.58 119.179 37.559 118.408 37.516 117.604C37.4756 116.843 37.4212 116.083 37.353 115.324C37.2953 114.67 37.2193 114.018 37.125 113.368C37.0629 112.907 36.9761 112.45 36.865 111.998C36.625 111.282 36.327 110.728 35.969 110.337C35.611 109.946 35.204 109.75 34.748 109.75ZM86.882 109.75C85.971 109.75 85.292 110.522 84.847 112.064C84.402 113.607 84.179 115.964 84.179 119.136C84.179 124.133 84.679 127.229 85.677 128.424C85.981 128.794 86.437 128.978 87.045 128.978C87.545 128.978 87.962 128.826 88.299 128.522C88.635 128.218 88.912 127.707 89.129 126.99C89.346 126.273 89.499 125.339 89.585 124.187C89.672 123.036 89.715 121.613 89.715 119.918C89.715 119.179 89.694 118.408 89.65 117.604C89.6099 116.843 89.5559 116.083 89.488 115.324C89.4303 114.67 89.3543 114.018 89.26 113.368C89.1975 112.907 89.1104 112.45 88.999 111.998C88.76 111.282 88.462 110.728 88.104 110.337C87.745 109.946 87.338 109.75 86.882 109.75ZM98.762 115.975L97.264 124.22H100.422L98.762 115.975ZM71.937 97.709C73.526 100.037 73.854 103.309 71.935 106.094C71.8778 106.177 71.8013 106.245 71.7122 106.292C71.623 106.338 71.5237 106.363 71.423 106.363C71.3223 106.363 71.2231 106.338 71.1339 106.292C71.0447 106.245 70.9682 106.177 70.911 106.094C68.989 103.31 69.318 100.04 70.909 97.709C70.9661 97.6253 71.0427 97.5568 71.1323 97.5094C71.2219 97.462 71.3217 97.4373 71.423 97.4373C71.5243 97.4373 71.6241 97.462 71.7137 97.5094C71.8033 97.5568 71.88 97.6253 71.937 97.709ZM71.423 99.319L71.36 99.457C70.735 100.891 70.63 102.578 71.28 104.176L71.395 104.441L71.422 104.499L71.45 104.441C72.204 102.811 72.147 101.066 71.537 99.579L71.43 99.334L71.423 99.319ZM105.861 34.129L105.947 34.138L106.323 34.186L107.711 34.386L107.943 34.418C108.556 34.5 109.098 34.56 109.616 34.596C110.563 34.663 111.344 34.645 111.925 34.529C112.035 34.5073 112.149 34.5157 112.255 34.5534C112.361 34.591 112.454 34.6565 112.526 34.7429C112.598 34.8293 112.645 34.9334 112.662 35.0443C112.68 35.1552 112.667 35.2688 112.625 35.373C112.18 36.485 111.165 37.301 110.048 37.72C110.976 38.7268 111.733 39.8791 112.288 41.131L112.358 41.298L112.411 41.429L112.498 41.655L112.628 42.007L112.734 42.307L112.927 42.867L113.094 43.366L113.362 44.186L113.645 45.079L113.889 45.866L114.185 46.85L114.383 47.522L114.531 48.031L114.771 48.882L115.005 49.73L115.155 50.289L115.229 50.566L115.372 51.116L115.442 51.39L115.578 51.93L115.709 52.465L115.773 52.73L115.898 53.255L116.017 53.773L116.131 54.283L116.186 54.536L116.293 55.036L116.394 55.529L116.49 56.013L116.58 56.49L116.624 56.725L116.706 57.189L116.746 57.419L116.819 57.869L116.854 58.092L116.92 58.531C117.128 59.977 117.238 61.273 117.238 62.386C117.238 62.668 117.223 62.946 117.193 63.222V63.162C117.193 63.222 117.193 63.282 117.191 63.342L117.183 63.53L117.169 63.724C117.155 63.8985 117.136 64.0726 117.112 64.246L117.08 64.471L117.041 64.706L116.997 64.951L116.973 65.077L116.921 65.339L116.862 65.612L116.798 65.898L116.728 66.197L116.611 66.67L116.526 67.003L116.386 67.53L116.244 68.047L114.879 72.846L114.541 74.053L114.337 74.795C113.716 77.0744 113.179 79.376 112.727 81.695L113.308 82.822L113.592 83.378L113.729 83.651L113.997 84.187L114.127 84.45L114.377 84.968L114.62 85.474L114.851 85.97L115.073 86.457C116.378 89.353 117.175 91.792 117.688 94.628L117.712 94.758L117.724 94.778L117.797 94.898L117.885 95.033L117.988 95.187L118.653 96.136L118.777 96.315L118.89 96.483C119.45 97.321 119.756 97.927 119.812 98.476C119.904 99.374 119.292 99.911 118.242 99.939L118.155 99.94H116.057L116.004 99.942L115.927 99.946C115.21 99.982 114.779 99.822 114.482 99.123C114.372 98.863 114.294 98.519 114.246 98.073L114.228 97.876L114.213 97.666L114.207 97.556L114.197 97.325L114.195 97.205L114.191 96.953V96.687L114.194 96.407L114.201 96.112L114.211 95.802L114.226 95.476C114.226 92.914 113.478 90.484 111.876 87.404C111.658 89.4415 111.547 91.4889 111.542 93.538C111.542 94.84 111.8 95.94 112.266 97.021L112.309 97.118L112.439 97.392L112.807 98.16L112.912 98.385L112.967 98.508L113.006 98.602C113.01 98.6133 113.014 98.6246 113.018 98.636C113.273 99.401 112.848 99.911 112.028 99.939L111.957 99.94H109.089C108.169 99.94 107.749 98.979 107.789 97.113L107.795 96.884L107.806 96.647L107.822 96.402L107.842 96.147L107.866 95.885L107.896 95.613L107.928 95.333L107.966 95.045L108.007 94.748L108.053 94.442L108.103 94.128L108.13 93.968C108.14 93.8842 108.167 93.8034 108.209 93.7303C108.251 93.6572 108.308 93.5935 108.376 93.543C108.443 93.4924 108.52 93.4562 108.602 93.4364C108.684 93.4165 108.77 93.4136 108.853 93.4277C108.936 93.4418 109.015 93.4727 109.086 93.5184C109.157 93.5641 109.218 93.6238 109.265 93.6938C109.312 93.7638 109.345 93.8426 109.361 93.9255C109.376 94.0084 109.375 94.0936 109.357 94.176L109.298 94.536L109.271 94.712L109.221 95.053L109.199 95.218L109.158 95.538C109.152 95.5897 109.145 95.6413 109.139 95.693L109.107 95.993L109.093 96.137L109.07 96.416C109.014 97.14 109.019 97.718 109.077 98.151C109.109 98.393 109.157 98.567 109.205 98.673L109.215 98.692H111.681L111.338 97.979L111.211 97.711L111.143 97.563L111.123 97.516C110.571 96.2622 110.29 94.906 110.297 93.536C110.304 90.86 110.487 88.188 110.847 85.536L110.657 85.203L110.235 84.485L108.923 82.29L108.568 81.69L108.128 80.935L107.82 80.4L107.532 79.888L107.349 79.558L107.174 79.238L107.006 78.924L106.844 78.618L106.689 78.318L106.54 78.023L106.397 77.733C106.374 77.6851 106.35 77.6371 106.327 77.589L106.285 77.504C104.813 79.488 104.042 81.334 103.993 83.258L103.83 83.294C106.928 82.555 109.3 84.117 109.3 87.204C109.3 89.67 107.695 92.849 105.19 95.408C102.428 98.23 98.964 99.95 95.48 99.941C95.3609 99.9402 95.2445 99.9053 95.1445 99.8405C95.0446 99.7756 94.9653 99.6835 94.916 99.575C94.811 99.344 94.706 99.098 94.601 98.84L94.477 98.524L94.352 98.196L94.229 97.856L94.107 97.505L93.987 97.142L93.867 96.769C93.7864 96.5106 93.7087 96.2512 93.634 95.991L93.52 95.588L93.408 95.175L93.299 94.754C93.2629 94.6109 93.2276 94.4675 93.193 94.324L93.089 93.884C93.037 93.6604 92.9867 93.4364 92.938 93.212L92.842 92.754C92.794 92.524 92.748 92.29 92.703 92.054L92.615 91.579C92.572 91.34 92.531 91.099 92.491 90.855L92.413 90.365C92.4001 90.2831 92.3875 90.201 92.375 90.119L92.303 89.621L92.236 89.119C91.9766 87.1268 91.8443 85.1201 91.84 83.111C91.84 78.672 92.721 74.764 94.4 71.115C95.697 68.297 97.328 65.841 99.78 62.768L100.446 61.943L102.297 59.686L102.79 59.08L103.124 58.663L103.434 58.272L103.628 58.022L103.816 57.779L104.086 57.423L104.174 57.305C106.69 53.935 107.858 51.258 107.858 48.2C107.865 47.275 107.768 46.354 107.571 45.453C106.893 46.127 106.021 46.633 104.961 46.917L104.842 46.947L104.84 46.958C104.14 49.814 102.555 52.086 100.455 52.155L100.355 52.157C100.27 52.1568 100.185 52.1391 100.107 52.1049C100.029 52.0707 99.9583 52.0207 99.9001 51.9582C99.842 51.8956 99.7973 51.8218 99.7689 51.7413C99.7405 51.6607 99.729 51.5752 99.735 51.49L99.75 51.301L99.789 50.921L99.857 50.338L99.948 49.611L100.08 48.611L100.328 46.799L100.478 45.734L100.708 44.119L101.075 41.594C101.088 41.5076 101.118 41.4248 101.165 41.351L101.25 41.219C101.266 41.1956 101.282 41.1723 101.298 41.149L101.401 40.999L101.515 40.837L101.641 40.664L101.85 40.384L102.002 40.183L102.165 39.971L102.428 39.635L102.814 39.151L103.109 38.785C103.482 38.326 103.876 37.85 104.274 37.375L104.965 36.555L105.1 36.396L105.198 34.752C105.198 34.392 105.502 34.105 105.861 34.129ZM36.981 34.129C37.1447 34.1186 37.3059 34.1731 37.4297 34.2807C37.5534 34.3884 37.6297 34.5405 37.642 34.704L37.655 34.944L37.743 36.394L38.17 36.898L38.274 37.02C38.673 37.494 39.072 37.974 39.454 38.44L39.834 38.907L40.228 39.397L40.506 39.749L40.762 40.078L40.995 40.383L41.204 40.663L41.388 40.919L41.497 41.074L41.594 41.218L41.68 41.35C41.718 41.41 41.745 41.474 41.76 41.542L41.781 41.665L42.058 43.575L42.291 45.201L42.604 47.443L42.864 49.377L42.974 50.243L43.027 50.69L43.061 50.993L43.092 51.301L43.107 51.491C43.1129 51.5761 43.1012 51.6615 43.0728 51.742C43.0443 51.8224 42.9996 51.8961 42.9415 51.9585C42.8834 52.021 42.813 52.0708 42.7349 52.1049C42.6567 52.1391 42.5723 52.1568 42.487 52.157C40.373 52.157 38.767 49.927 38.039 47.092L38.003 46.948L37.885 46.918C36.825 46.633 35.953 46.128 35.275 45.454C35.077 46.355 34.981 47.277 34.988 48.205C34.988 51.202 36.113 53.835 38.533 57.119L38.76 57.423L39.03 57.779L39.218 58.022L39.513 58.4L39.83 58.798L40.174 59.225L40.549 59.686L42.235 61.741L42.759 62.388L42.859 62.511C45.427 65.705 47.113 68.219 48.445 71.115C50.125 74.764 51.005 78.672 51.005 83.111C51.005 85.152 50.859 87.185 50.61 89.119L50.542 89.621L50.471 90.119L50.433 90.366L50.355 90.856C50.315 91.099 50.273 91.34 50.23 91.579L50.143 92.054C50.098 92.29 50.052 92.524 50.004 92.754L49.908 93.212L49.758 93.884L49.653 94.324L49.6 94.539L49.492 94.965L49.437 95.175L49.326 95.588L49.212 95.991C49.137 96.2512 49.059 96.5106 48.978 96.769L48.859 97.142L48.739 97.505L48.616 97.856L48.493 98.196L48.369 98.524L48.244 98.84C48.14 99.098 48.035 99.344 47.93 99.575C47.8807 99.6837 47.8012 99.7759 47.7011 99.8407C47.601 99.9056 47.4843 99.9404 47.365 99.941C43.882 99.951 40.418 98.231 37.655 95.408C35.151 92.848 33.545 89.67 33.545 87.205C33.545 84.172 35.834 82.611 38.852 83.257C38.803 81.332 38.032 79.484 36.556 77.497L36.51 77.59L36.44 77.734L36.297 78.024L36.148 78.319L35.993 78.619L35.832 78.925L35.749 79.081L35.489 79.56L35.306 79.89L35.017 80.401L34.815 80.755L34.495 81.308L34.153 81.888L32.719 84.292L32.386 84.855L32.182 85.203L31.996 85.525L32.102 86.339C32.394 88.727 32.542 91.13 32.549 93.538C32.549 95.023 32.252 96.288 31.723 97.516L31.663 97.649L31.546 97.899L31.164 98.692H33.631L33.641 98.673C33.6988 98.5307 33.7378 98.3814 33.757 98.229L33.769 98.151C33.827 97.718 33.831 97.141 33.776 96.416L33.752 96.136L33.738 95.992L33.706 95.693C33.7002 95.6413 33.6942 95.5897 33.688 95.538L33.647 95.218L33.6 94.885L33.574 94.712L33.519 94.358L33.489 94.176C33.4684 94.0927 33.4652 94.0059 33.4796 93.9213C33.494 93.8366 33.5257 93.7559 33.5728 93.684C33.6198 93.6122 33.6812 93.5508 33.7531 93.5038C33.825 93.4568 33.9058 93.4251 33.9904 93.4108C34.0751 93.3964 34.1618 93.3997 34.2452 93.4204C34.3285 93.4411 34.4067 93.4788 34.4748 93.5311C34.5429 93.5834 34.5995 93.6492 34.641 93.7244C34.6825 93.7996 34.708 93.8825 34.716 93.968L34.768 94.286L34.816 94.596L34.839 94.748L34.88 95.045L34.918 95.333L34.951 95.613L34.979 95.885L35.004 96.147L35.024 96.402L35.039 96.647L35.051 96.884L35.058 97.113C35.096 98.942 34.694 99.901 33.811 99.939L33.756 99.94H30.89C30.024 99.94 29.566 99.423 29.829 98.636L29.841 98.602L29.88 98.508L29.935 98.385L30.04 98.16L30.51 97.178L30.58 97.021C31.0643 95.9247 31.3113 94.7385 31.305 93.54C31.2998 91.4863 31.1883 89.4342 30.971 87.392C29.363 90.478 28.614 92.907 28.613 95.446L28.628 95.777L28.638 96.092L28.645 96.391L28.649 96.674V96.943L28.647 97.071L28.642 97.318L28.638 97.436L28.627 97.661L28.612 97.873C28.568 98.42 28.484 98.826 28.357 99.123C28.072 99.797 27.66 99.97 26.989 99.949L26.783 99.94H24.685C23.582 99.94 22.934 99.398 23.027 98.476C23.081 97.953 23.361 97.378 23.871 96.601L24.063 96.315L24.186 96.135L24.794 95.27L24.905 95.108L25.001 94.963L25.043 94.898L25.116 94.778L25.128 94.758L25.151 94.628C25.705 91.572 26.587 88.977 28.079 85.775L28.319 85.265L28.443 85.005L28.7 84.477L28.832 84.209L29.104 83.662L29.388 83.102L30.117 81.685L30.003 81.102C29.6098 79.1524 29.1563 77.2155 28.643 75.294L28.442 74.546L28.146 73.479L26.56 67.9L26.412 67.35L26.32 67.003L26.235 66.67L26.155 66.35L26.048 65.898L25.984 65.612L25.925 65.339L25.873 65.077L25.826 64.827L25.804 64.706L25.766 64.471L25.734 64.246C25.71 64.0726 25.6907 63.8985 25.676 63.724L25.663 63.53L25.655 63.342C25.6541 63.3114 25.6535 63.2807 25.653 63.25C25.6197 62.9632 25.603 62.6747 25.603 62.386C25.603 61.273 25.715 59.976 25.923 58.531L25.988 58.092L26.023 57.87L26.097 57.418L26.136 57.189L26.218 56.725L26.262 56.49L26.352 56.013L26.448 55.529L26.549 55.036L26.656 54.536L26.768 54.029L26.825 53.773L26.945 53.255L27.069 52.73L27.264 51.93L27.401 51.39L27.541 50.842L27.687 50.289L27.837 49.729L28.023 49.052L28.214 48.372L28.459 47.522L28.657 46.85L28.855 46.19L29.003 45.706L29.245 44.926L29.526 44.044L29.791 43.237L29.995 42.633L30.145 42.203L30.282 41.823L30.375 41.575L30.485 41.296L30.533 41.181L30.555 41.13C31.1109 39.8789 31.8675 38.727 32.795 37.72C31.678 37.302 30.663 36.486 30.218 35.373C30.1763 35.2688 30.1635 35.1552 30.1809 35.0443C30.1984 34.9334 30.2454 34.8293 30.3171 34.7429C30.3887 34.6565 30.4824 34.591 30.5882 34.5534C30.6939 34.5157 30.8079 34.5073 30.918 34.529C31.498 34.644 32.278 34.663 33.222 34.596C33.742 34.56 34.287 34.501 34.901 34.418L36.387 34.205L36.896 34.138L36.981 34.129ZM72.042 91.945L72.045 92.002C72.065 93.228 72.841 94.974 74.109 96.198C75.549 97.587 77.494 98.28 79.942 98.056L80.111 98.04L79.968 97.805L79.461 96.941L79.396 96.831L79.265 96.617C78.049 94.674 76.961 94.053 74.689 94.51C74.5293 94.5365 74.3656 94.4998 74.2324 94.4079C74.0992 94.3159 74.007 94.1757 73.9752 94.017C73.9434 93.8583 73.9745 93.6934 74.062 93.5572C74.1495 93.421 74.2865 93.3241 74.444 93.287C77.315 92.709 78.848 93.61 80.319 95.954L80.462 96.186L80.982 97.075L81.152 97.355L81.257 97.521L81.355 97.671L81.449 97.807C81.527 97.916 81.602 98.013 81.679 98.105C81.7487 98.1883 81.7954 98.2883 81.8146 98.3952C81.8338 98.502 81.8247 98.6121 81.7884 98.7144C81.752 98.8167 81.6896 98.9077 81.6073 98.9785C81.525 99.0493 81.4256 99.0974 81.319 99.118C77.932 99.774 75.195 98.978 73.246 97.097C72.5087 96.3781 71.9065 95.5327 71.468 94.601L71.421 94.499L71.377 94.596C70.9616 95.4771 70.4003 96.2818 69.717 96.976L69.6 97.091C67.649 98.976 64.912 99.774 61.523 99.118C61.4163 99.0973 61.3169 99.0492 61.2346 98.9782C61.1522 98.9073 61.0898 98.8161 61.0535 98.7137C61.0173 98.6112 61.0084 98.5011 61.0278 98.3942C61.0471 98.2872 61.0941 98.1872 61.164 98.104L61.256 97.991L61.348 97.87L61.441 97.738L61.538 97.595L61.639 97.437L61.747 97.263L61.863 97.07L62.309 96.308C63.852 93.699 65.389 92.681 68.401 93.287C68.5586 93.3241 68.6956 93.421 68.783 93.5572C68.8705 93.6934 68.9016 93.8583 68.8699 94.017C68.8381 94.1757 68.7458 94.3159 68.6126 94.4079C68.4794 94.4998 68.3157 94.5365 68.156 94.51C65.964 94.069 64.876 94.63 63.708 96.416L63.578 96.62L63.446 96.833L62.997 97.599L62.855 97.839L62.732 98.039C65.208 98.305 67.179 97.644 68.642 96.281L68.736 96.193C69.966 95.005 70.733 93.327 70.796 92.115L70.8 92.002C70.813 91.204 71.975 91.185 72.042 91.945ZM106.404 35.457L106.332 36.663C106.332 36.677 106.331 36.691 106.33 36.705L106.295 37.265L106.249 38.128L106.228 38.608L106.212 39.093C106.213 39.1765 106.197 39.2593 106.165 39.3364C106.133 39.4135 106.085 39.4835 106.026 39.542C105.966 39.6006 105.896 39.6466 105.818 39.6773C105.741 39.708 105.657 39.7228 105.574 39.7208C105.491 39.7188 105.408 39.7 105.332 39.6656C105.256 39.6312 105.188 39.5818 105.131 39.5205C105.075 39.4591 105.031 39.387 105.003 39.3084C104.974 39.2298 104.962 39.1464 104.967 39.063L104.979 38.673L104.987 38.465C104.773 38.722 104.562 38.977 104.355 39.229L103.885 39.809L103.502 40.286L103.241 40.618L103.001 40.928L102.855 41.12L102.655 41.387L102.537 41.55L102.43 41.701L102.334 41.84L102.287 41.91L102.019 43.753L101.786 45.376L101.457 47.726L101.242 49.319L101.141 50.103L101.061 50.749L101.071 50.746C102.217 50.223 103.22 48.506 103.686 46.422L103.714 46.294C103.739 46.1737 103.8 46.0635 103.887 45.9774C103.975 45.8913 104.086 45.8331 104.207 45.81C105.609 45.544 106.633 44.842 107.275 43.839L107.289 43.804C107.309 43.765 107.333 43.7281 107.36 43.694C107.869 42.834 108.108 41.768 108.076 40.574C108.071 40.4907 108.083 40.4073 108.112 40.3288C108.14 40.2503 108.183 40.1782 108.24 40.1168C108.296 40.0554 108.365 40.0061 108.441 39.9716C108.517 39.9371 108.599 39.9182 108.682 39.9161C108.765 39.9139 108.848 39.9286 108.926 39.9591C109.004 39.9896 109.074 40.0354 109.134 40.0938C109.194 40.1522 109.241 40.222 109.273 40.2989C109.305 40.3759 109.321 40.4586 109.321 40.542C109.357 41.897 109.088 43.142 108.524 44.178L108.436 43.894C108.889 45.2858 109.114 46.7415 109.103 48.205C109.103 51.576 107.833 54.487 105.171 58.053L104.898 58.415L104.613 58.785L104.415 59.039L104.1 59.437L103.642 60.008L101.46 62.672L101.038 63.193L100.957 63.293C98.447 66.415 96.813 68.852 95.531 71.638C93.927 75.125 93.085 78.855 93.085 83.111C93.0888 84.9136 93.199 86.7144 93.415 88.504L93.48 89.025C93.558 89.631 93.647 90.225 93.745 90.807L93.831 91.303L93.921 91.791C94.043 92.438 94.176 93.065 94.317 93.669L94.424 94.117C94.46 94.264 94.496 94.411 94.534 94.555L94.646 94.985C94.798 95.55 94.956 96.088 95.118 96.595L95.24 96.968C95.425 97.52 95.614 98.03 95.805 98.493L95.885 98.684L95.985 98.68C98.88 98.533 101.782 97.051 104.165 94.673L104.301 94.534C106.597 92.189 108.055 89.301 108.055 87.204C108.055 84.981 106.481 83.944 104.118 84.508C101.393 85.158 98.532 87.72 96.666 91.617C96.5944 91.7658 96.4666 91.8801 96.3108 91.9346C96.1549 91.9892 95.9838 91.9796 95.835 91.908C95.6862 91.8364 95.572 91.7086 95.5174 91.5528C95.4628 91.3969 95.4724 91.2258 95.544 91.077C97.329 87.347 100 84.709 102.748 83.635C102.694 81.088 103.712 78.728 105.705 76.213L105.695 76.187C105.675 76.14 105.655 76.094 105.637 76.047L105.524 75.769L105.468 75.629L105.359 75.347L105.252 75.063L105.2 74.92C104.08 71.843 103.683 68.854 104.107 65.706C104.115 65.6228 104.14 65.5421 104.181 65.4688C104.221 65.3954 104.275 65.3309 104.341 65.2791C104.407 65.2273 104.482 65.1892 104.563 65.1671C104.643 65.1451 104.728 65.1395 104.81 65.1507C104.893 65.1619 104.973 65.1897 105.045 65.2324C105.117 65.2751 105.18 65.3319 105.229 65.3993C105.279 65.4667 105.314 65.5434 105.333 65.6248C105.352 65.7062 105.355 65.7906 105.341 65.873C104.945 68.81 105.316 71.597 106.37 74.493L106.471 74.766L106.575 75.038L106.681 75.308L106.79 75.576L106.902 75.844L106.966 75.99C106.992 76.034 107.012 76.08 107.026 76.128L107.139 76.382L107.2 76.518L107.327 76.79L107.458 77.066L107.595 77.346L107.737 77.629L107.885 77.919L108.039 78.213L108.2 78.515L108.368 78.825L108.542 79.142L108.725 79.468L108.915 79.804L109.215 80.328L109.536 80.878L109.877 81.457L111.189 83.653L111.526 84.223L111.733 84.576L111.928 84.913L112.007 85.049C112.026 85.078 112.043 85.107 112.057 85.139L112.114 85.239L112.242 85.465L112.49 85.912C114.515 89.595 115.47 92.421 115.47 95.505L115.457 95.805L115.447 96.088L115.441 96.356L115.437 96.61L115.436 96.849L115.438 97.073L115.44 97.18L115.446 97.382L115.45 97.478L115.46 97.66L115.472 97.828L115.488 97.982L115.505 98.123C115.511 98.168 115.518 98.211 115.525 98.251L115.548 98.366C115.568 98.456 115.589 98.534 115.614 98.598L115.64 98.667L115.647 98.689C115.652 98.701 115.656 98.707 115.667 98.709L115.689 98.711L115.864 98.699L116.004 98.693H118.155C118.377 98.693 118.513 98.666 118.574 98.64L118.58 98.636L118.577 98.627L118.574 98.603C118.55 98.368 118.371 97.986 118.044 97.465L117.921 97.276L117.803 97.099L117.631 96.849L117.021 95.98L116.896 95.796L116.786 95.63L116.691 95.478C116.677 95.4548 116.662 95.4315 116.648 95.408L116.572 95.273C116.539 95.2129 116.516 95.1476 116.504 95.08C116.145 92.994 115.571 90.951 114.789 88.984L114.612 88.541C114.402 88.021 114.172 87.491 113.925 86.942L113.709 86.468L113.483 85.984L113.247 85.49L113.001 84.984L112.745 84.467C112.701 84.379 112.657 84.291 112.613 84.203L112.341 83.666L111.541 82.115C111.525 82.0878 111.51 82.0594 111.498 82.03L111 81.065L110.645 80.365L110.405 79.885L110.217 79.504L110.038 79.134L109.835 78.706L109.639 78.281C108.991 76.856 108.471 75.504 108.087 74.186C108.039 74.1031 108.011 74.0098 108.007 73.914C106.865 69.806 107.046 66.013 108.737 61.371C108.765 61.2943 108.808 61.2238 108.863 61.1636C108.919 61.1035 108.985 61.0548 109.06 61.0204C109.134 60.986 109.214 60.9665 109.296 60.9631C109.377 60.9597 109.459 60.9724 109.536 61.0005C109.612 61.0286 109.683 61.0716 109.743 61.1269C109.803 61.1822 109.852 61.2489 109.886 61.323C109.921 61.3972 109.94 61.4774 109.943 61.5591C109.947 61.6407 109.934 61.7223 109.906 61.799C108.441 65.819 108.171 69.136 108.974 72.653L108.997 72.629L110.693 70.954L111.229 70.419L111.328 70.319L111.632 70.009L111.925 69.704L112.068 69.554L112.345 69.26L112.479 69.114L112.739 68.828L112.989 68.547L113.229 68.27C113.346 68.134 113.459 67.999 113.568 67.865L113.781 67.601C115.305 65.676 115.993 64.088 115.993 62.386C115.993 61.27 115.873 59.946 115.649 58.453L115.582 58.023L115.51 57.583L115.432 57.133C115.419 57.0573 115.405 56.9817 115.391 56.906L115.305 56.445L115.213 55.975L115.116 55.498L115.015 55.013C114.997 54.931 114.98 54.849 114.962 54.767L114.852 54.271C114.833 54.1873 114.814 54.1037 114.795 54.02L114.679 53.513L114.557 52.998L114.43 52.478L114.299 51.95L114.163 51.417L114.023 50.877L113.878 50.332L113.714 49.729L113.624 49.399L113.438 48.739L113.296 48.245L113.043 47.378L112.806 46.586L112.649 46.072L112.417 45.325L112.193 44.618L112.049 44.173L111.911 43.751L111.707 43.147L111.556 42.708L111.451 42.415L111.355 42.155L111.269 41.929L111.194 41.741L111.149 41.637C110.547 40.2799 109.684 39.0546 108.609 38.031C108.31 38.051 108.019 38.038 107.744 37.991C107.585 37.9588 107.445 37.8662 107.354 37.7328C107.262 37.5994 107.226 37.4356 107.253 37.2759C107.28 37.1163 107.368 36.9734 107.498 36.8773C107.628 36.7812 107.791 36.7395 107.951 36.761C108.169 36.798 108.406 36.803 108.651 36.779C108.71 36.759 108.771 36.751 108.831 36.752C109.516 36.6469 110.16 36.3611 110.698 35.924L110.747 35.882H110.637C110.349 35.882 110.045 35.872 109.723 35.854L109.529 35.841C108.982 35.802 108.415 35.741 107.779 35.655L106.404 35.457ZM36.438 35.457L35.305 35.622C34.57 35.725 33.926 35.798 33.309 35.842C32.917 35.869 32.549 35.883 32.203 35.882H32.095L32.145 35.924C32.6812 36.3596 33.3228 36.6462 34.005 36.755C34.0708 36.7506 34.1369 36.7581 34.2 36.777C34.412 36.8 34.619 36.798 34.812 36.773L34.892 36.761C35.0551 36.7337 35.2224 36.7723 35.3571 36.8683C35.4917 36.9643 35.5827 37.1099 35.61 37.273C35.6373 37.4361 35.5987 37.6034 35.5027 37.7381C35.4067 37.8727 35.2611 37.9637 35.098 37.991C34.823 38.038 34.534 38.051 34.238 38.034L34.443 37.84C33.2713 38.8994 32.3345 40.1925 31.693 41.636L31.673 41.682L31.606 41.845L31.53 42.041L31.474 42.19L31.284 42.714L31.105 43.234L30.909 43.82L30.699 44.464L30.523 45.014L30.249 45.889L29.969 46.811L29.686 47.764L29.499 48.409L29.405 48.739L29.219 49.399L29.039 50.057L28.892 50.605L28.749 51.148L28.679 51.417L28.543 51.95L28.413 52.478L28.286 52.998L28.164 53.513L28.047 54.02L27.935 54.52L27.881 54.767L27.776 55.257L27.726 55.497L27.629 55.975L27.538 56.445L27.451 56.906C27.4375 56.982 27.4242 57.058 27.411 57.134L27.332 57.582L27.26 58.022L27.193 58.453C26.969 59.946 26.849 61.27 26.849 62.386C26.849 62.608 26.861 62.829 26.885 63.049C26.892 63.074 26.895 63.101 26.897 63.128C27.069 64.561 27.761 65.958 29.061 67.601L29.274 67.865C29.384 67.999 29.496 68.134 29.614 68.27L29.853 68.547L30.103 68.827L30.363 69.114L30.497 69.26L30.774 69.555L30.917 69.705L31.21 70.008L31.515 70.318L31.925 70.731L33.865 72.648C34.666 69.134 34.395 65.818 32.933 61.799C32.9049 61.7222 32.8922 61.6406 32.8957 61.5589C32.8991 61.4771 32.9186 61.3969 32.953 61.3227C32.9875 61.2485 33.0362 61.1818 33.0964 61.1264C33.1567 61.0711 33.2272 61.0281 33.304 61C33.3808 60.9719 33.4624 60.9592 33.5442 60.9627C33.6259 60.9661 33.7062 60.9856 33.7804 61.02C33.8545 61.0545 33.9212 61.1032 33.9766 61.1634C34.032 61.2237 34.0749 61.2942 34.103 61.371C35.789 66.004 35.971 69.791 34.835 73.89C34.835 74 34.805 74.11 34.745 74.207C34.646 74.541 34.54 74.879 34.425 75.219L34.285 75.617C33.9339 76.5929 33.5392 77.5525 33.102 78.493L32.902 78.92L32.657 79.43L32.433 79.884L32.193 80.364L31.837 81.064L31.364 81.985C31.3426 82.0516 31.3101 82.1141 31.268 82.17L30.638 83.392L30.498 83.666L30.226 84.203C30.136 84.38 30.05 84.554 29.964 84.727L29.714 85.238L29.473 85.738L29.242 86.227C27.734 89.453 26.868 92.022 26.335 95.08C26.3231 95.1476 26.3001 95.2129 26.267 95.273L26.19 95.408C26.1762 95.4315 26.1622 95.4548 26.148 95.478L26.053 95.63L25.943 95.796L25.737 96.096L25.207 96.848L25.035 97.099L24.918 97.276L24.796 97.466C24.487 97.956 24.311 98.322 24.271 98.56L24.262 98.625L24.26 98.632L24.258 98.636L24.265 98.64C24.32 98.664 24.435 98.687 24.62 98.692H26.797L26.874 98.695L27.056 98.705L27.15 98.711L27.172 98.709C27.182 98.707 27.187 98.701 27.192 98.689L27.204 98.652L27.21 98.635C27.2261 98.5968 27.2401 98.5577 27.252 98.518L27.277 98.426L27.3 98.321L27.311 98.265L27.331 98.142L27.34 98.076L27.356 97.934L27.364 97.858L27.376 97.697L27.386 97.522L27.394 97.335L27.397 97.235L27.401 97.027L27.403 96.805L27.401 96.568L27.397 96.318L27.39 96.052L27.38 95.772L27.368 95.476C27.368 92.358 28.362 89.482 30.471 85.69L30.724 85.24L30.911 84.913L31.106 84.576L31.42 84.039L32.96 81.459L33.301 80.879L33.621 80.329L33.923 79.806L34.113 79.47L34.295 79.143L34.47 78.826L34.637 78.516L34.798 78.215L34.952 77.92L35.1 77.63L35.242 77.347L35.379 77.067L35.51 76.791L35.574 76.655L35.699 76.383L35.819 76.113L35.877 75.979L35.991 75.711L36.102 75.443L36.156 75.309L36.263 75.039L36.366 74.768L36.467 74.493C37.521 71.597 37.891 68.81 37.494 65.873C37.477 65.7893 37.4773 65.703 37.495 65.6194C37.5126 65.5358 37.5473 65.4567 37.5968 65.3871C37.6462 65.3174 37.7095 65.2587 37.7826 65.2145C37.8557 65.1703 37.9371 65.1416 38.0218 65.1301C38.1064 65.1187 38.1926 65.1247 38.2748 65.1479C38.357 65.1711 38.4336 65.2109 38.4998 65.2649C38.566 65.3189 38.6204 65.3859 38.6597 65.4618C38.6989 65.5377 38.7222 65.6208 38.728 65.706C39.153 68.855 38.757 71.843 37.638 74.921L37.532 75.207L37.424 75.489L37.397 75.559L37.257 75.909L37.143 76.188L37.135 76.205L37.155 76.231C39.139 78.739 40.151 81.094 40.099 83.635C42.846 84.709 45.517 87.348 47.302 91.077C47.3736 91.2259 47.3831 91.3972 47.3285 91.5531C47.2738 91.7091 47.1594 91.8369 47.0105 91.9085C46.8616 91.9801 46.6903 91.9896 46.5344 91.935C46.3785 91.8803 46.2506 91.7659 46.179 91.617C44.314 87.72 41.452 85.157 38.728 84.508C36.364 83.945 34.79 84.981 34.79 87.205C34.79 89.301 36.25 92.189 38.545 94.535C40.952 96.994 43.91 98.53 46.861 98.68L46.961 98.684L46.977 98.646C47.041 98.495 47.105 98.339 47.167 98.177L47.294 97.847C47.336 97.736 47.378 97.621 47.42 97.505L47.544 97.149C47.586 97.029 47.627 96.906 47.667 96.781L47.789 96.401C47.89 96.079 47.989 95.745 48.086 95.4L48.201 94.98L48.313 94.551C48.3695 94.3308 48.4242 94.1101 48.477 93.889L48.583 93.436C48.669 93.055 48.753 92.664 48.833 92.266L48.926 91.784C49.416 89.194 49.741 86.295 49.759 83.37L49.76 83.111C49.76 78.855 48.92 75.125 47.315 71.638C46.067 68.927 44.486 66.548 42.091 63.545L41.808 63.193L41.296 62.562L39.454 60.316L38.969 59.716L38.533 59.17L38.233 58.785L37.948 58.415L37.675 58.053C35.012 54.487 33.742 51.576 33.742 48.21C33.732 46.843 33.927 45.482 34.319 44.174C33.775 43.173 33.507 41.976 33.522 40.674L33.525 40.542C33.5247 40.4586 33.5412 40.376 33.5734 40.2991C33.6056 40.2222 33.6529 40.1525 33.7126 40.0943C33.7722 40.036 33.8429 39.9902 33.9206 39.9598C33.9982 39.9294 34.0812 39.9148 34.1645 39.917C34.2479 39.9192 34.3299 39.9382 34.4059 39.9727C34.4818 40.0072 34.55 40.0566 34.6064 40.1179C34.6629 40.1793 34.7065 40.2514 34.7346 40.3299C34.7627 40.4084 34.7747 40.4918 34.77 40.575C34.738 41.773 34.979 42.844 35.49 43.707C35.517 43.74 35.54 43.777 35.559 43.816C36.198 44.831 37.227 45.542 38.639 45.81C38.885 45.857 39.079 46.048 39.132 46.294C39.575 48.389 40.562 50.135 41.696 50.709L41.78 50.749L41.701 50.099L41.52 48.707L41.207 46.436L41.057 45.376L40.558 41.91L40.46 41.766L40.352 41.612L40.166 41.356L40.026 41.169L39.876 40.969L39.626 40.647L39.256 40.177L38.96 39.808L38.772 39.576C38.4693 39.2035 38.1643 38.8328 37.857 38.464L37.861 38.561L37.873 38.876L37.879 39.062C37.8837 39.1453 37.8717 39.2286 37.8436 39.3071C37.8155 39.3857 37.7719 39.4577 37.7154 39.5191C37.659 39.5805 37.5908 39.6299 37.5149 39.6644C37.4389 39.6989 37.3569 39.7178 37.2735 39.72C37.1902 39.7222 37.1072 39.7077 37.0296 39.6772C36.9519 39.6468 36.8812 39.6011 36.8216 39.5428C36.7619 39.4845 36.7146 39.4148 36.6824 39.3379C36.6502 39.261 36.6337 39.1784 36.634 39.095L36.621 38.716L36.595 38.13L36.565 37.573L36.438 35.457ZM58.879 77.157C60.667 78.244 61.969 79.235 63.089 80.526C64.618 82.29 65.467 84.328 65.467 86.704C65.458 90.578 62.321 93.714 58.456 93.711C55.29 93.711 52.724 91.14 52.724 87.967C52.7235 87.3477 52.8449 86.7343 53.0815 86.162C53.318 85.5896 53.6649 85.0694 54.1025 84.6311C54.54 84.1928 55.0596 83.845 55.6316 83.6075C56.2036 83.37 56.8167 83.2475 57.436 83.247C57.9484 83.2475 58.4556 83.3491 58.9285 83.5461C59.4015 83.7431 59.8309 84.0316 60.192 84.395C60.9217 85.1295 61.33 86.1237 61.327 87.159C61.327 87.834 61.117 88.493 60.727 89.043C60.6797 89.1097 60.6197 89.1664 60.5505 89.2099C60.4813 89.2534 60.4041 89.2828 60.3235 89.2965C60.2429 89.3101 60.1604 89.3078 60.0807 89.2895C60.001 89.2712 59.9256 89.2374 59.859 89.19C59.7246 89.0938 59.6337 88.9482 59.6063 88.7852C59.579 88.6221 59.6173 88.4549 59.713 88.32C59.953 87.981 60.082 87.576 60.081 87.158C60.0834 86.4531 59.8057 85.7762 59.309 85.276C59.0635 85.0287 58.7716 84.8323 58.45 84.6981C58.1284 84.5639 57.7835 84.4945 57.435 84.494C56.5151 84.4953 55.6333 84.8619 54.9835 85.5132C54.3338 86.1644 53.9692 87.0471 53.97 87.967C53.9694 88.5568 54.0849 89.1409 54.31 89.686C54.535 90.2312 54.8653 90.7266 55.2819 91.1441C55.6984 91.5616 56.1931 91.8929 56.7378 92.1192C57.2824 92.3455 57.8662 92.4624 58.456 92.463C59.9841 92.4625 61.4494 91.8556 62.5305 90.7757C63.6115 89.6958 64.2199 88.2311 64.222 86.703C64.222 84.647 63.491 82.893 62.148 81.344C61.132 80.172 59.92 79.25 58.233 78.224C58.1009 78.134 58.0082 77.9967 57.9742 77.8405C57.9402 77.6842 57.9674 77.5209 58.0501 77.384C58.1329 77.2472 58.265 77.1473 58.4191 77.1049C58.5733 77.0625 58.7379 77.0818 58.879 77.157ZM84.78 77.366C84.8656 77.5075 84.8917 77.6771 84.8525 77.8377C84.8133 77.9983 84.7121 78.1369 84.571 78.223C82.886 79.249 81.674 80.171 80.658 81.344C79.316 82.892 78.586 84.647 78.586 86.701C78.589 88.233 79.2 89.701 80.283 90.781C80.819 91.3159 81.4553 91.7399 82.1554 92.0285C82.8556 92.3171 83.6057 92.4648 84.363 92.463C85.5544 92.4617 86.6965 91.9874 87.5382 91.1443C88.38 90.3012 88.8525 89.1584 88.852 87.967C88.8528 87.0471 88.4883 86.1644 87.8385 85.5132C87.1887 84.8619 86.307 84.4953 85.387 84.494C84.6835 84.4956 84.0093 84.7763 83.5125 85.2744C83.0156 85.7726 82.7367 86.4475 82.737 87.151C82.736 87.566 82.865 87.97 83.107 88.307C83.2037 88.441 83.2432 88.6078 83.2168 88.7709C83.1905 88.9339 83.1004 89.0798 82.9665 89.1765C82.8326 89.2732 82.6657 89.3127 82.5027 89.2863C82.3396 89.26 82.1937 89.17 82.097 89.036C81.7019 88.4863 81.4899 87.826 81.491 87.149C81.4907 86.1152 81.9008 85.1235 82.6311 84.3917C83.3613 83.6599 84.3522 83.2479 85.386 83.246C86.0054 83.2467 86.6186 83.3693 87.1906 83.607C87.7626 83.8447 88.2821 84.1927 88.7196 84.6312C89.1571 85.0697 89.5039 85.5901 89.7402 86.1626C89.9766 86.7351 90.0978 87.3486 90.097 87.968C90.095 91.14 87.528 93.711 84.364 93.711C83.4433 93.7129 82.5313 93.5332 81.6802 93.1821C80.8291 92.831 80.0556 92.3155 79.404 91.665C78.0862 90.3492 77.3443 88.5643 77.341 86.702C77.341 84.328 78.189 82.29 79.717 80.526C80.836 79.236 82.139 78.243 83.925 77.156C83.9949 77.1136 84.0725 77.0854 84.1533 77.073C84.2342 77.0606 84.3167 77.0642 84.3961 77.0837C84.4755 77.1032 84.5503 77.1382 84.6161 77.1866C84.682 77.2351 84.7377 77.296 84.78 77.366ZM51.683 34.139C54.02 34.296 55.723 36.184 55.723 39.169C55.723 39.48 55.707 39.791 55.673 40.103C57.0467 39.6008 58.4974 39.342 59.96 39.338C65.394 39.338 69.787 42.691 71.392 47.01L71.439 47.14L71.488 47.009C73.072 42.743 77.373 39.423 82.711 39.339H82.917C84.353 39.339 85.806 39.596 87.194 40.097C87.1601 39.7885 87.1434 39.4784 87.144 39.168C87.144 36.186 88.847 34.298 91.183 34.141C93.393 33.991 95.306 35.492 95.306 37.723C95.306 39.738 93.961 40.917 92.36 40.676C90.773 40.436 89.853 38.926 90.579 37.209C90.6436 37.057 90.7659 36.937 90.919 36.8752C91.0721 36.8134 91.2435 36.8149 91.3955 36.8795C91.5475 36.9441 91.6676 37.0664 91.7294 37.2195C91.7912 37.3727 91.7896 37.544 91.725 37.696C91.326 38.64 91.74 39.321 92.545 39.442C93.388 39.569 94.061 38.979 94.061 37.722C94.061 36.269 92.803 35.282 91.266 35.386C89.593 35.498 88.388 36.834 88.388 39.168C88.388 39.663 88.438 40.157 88.535 40.668C89.7845 41.2811 90.9283 42.0896 91.923 43.063C94.809 45.888 96.433 50.036 96.433 55.322C96.433 59.54 95.063 63.13 92.431 66.46L92.334 66.581L92.139 66.823L91.942 67.061L91.743 67.296L91.643 67.413L91.44 67.645L91.337 67.761L91.129 67.991C91.0938 68.0291 91.0585 68.0671 91.023 68.105L90.809 68.333C90.7728 68.3715 90.7365 68.4098 90.7 68.448L90.479 68.675L90.367 68.789L90.137 69.018L89.903 69.248L89.783 69.362L89.539 69.593L89.289 69.827L89.031 70.062L88.765 70.3L88.63 70.42L88.352 70.664L88.066 70.91L87.619 71.289L87.31 71.547L86.827 71.944L86.492 72.216L85.968 72.636L85.418 73.071L85.036 73.371L84.234 73.994L82.074 75.656L81.541 76.072L80.872 76.598L80.25 77.095L79.955 77.334L79.532 77.681L79.129 78.017L78.746 78.343L78.501 78.555L78.262 78.765L77.918 79.073L77.696 79.276L77.479 79.478L77.268 79.678L77.061 79.878L76.858 80.078L76.658 80.278L76.561 80.378L76.366 80.578L76.173 80.781L75.983 80.986C73.943 83.195 72.64 85.406 72.045 87.856C71.891 88.491 70.989 88.49 70.835 87.854C70.244 85.405 68.942 83.194 66.904 80.986L66.714 80.781L66.424 80.478L66.228 80.278L66.028 80.078L65.826 79.878L65.619 79.678L65.408 79.478L65.191 79.276L64.969 79.072L64.741 78.867L64.506 78.659L64.264 78.449L64.014 78.234L63.624 77.905L63.354 77.68L63.074 77.45L62.784 77.214L62.174 76.724L61.686 76.338L60.993 75.797L58.636 73.982L58.02 73.504L57.626 73.196L57.246 72.896L56.876 72.604L56.346 72.178L56.007 71.903L55.679 71.633L55.205 71.239L54.902 70.983L54.609 70.731L54.465 70.606L54.185 70.36L53.913 70.117L53.649 69.877L53.393 69.64L53.143 69.405L52.9 69.171L52.664 68.938L52.433 68.706L52.207 68.474C52.0964 68.3593 51.9867 68.2436 51.878 68.127L51.664 67.894L51.454 67.66L51.247 67.424L51.043 67.186L50.843 66.946L50.643 66.702L50.446 66.455C47.814 63.127 46.443 59.538 46.443 55.322C46.443 50.037 48.069 45.888 50.955 43.063C51.9464 42.0932 53.0852 41.2866 54.329 40.673C54.429 40.161 54.479 39.665 54.479 39.168C54.479 36.832 53.273 35.497 51.6 35.384C50.064 35.281 48.806 36.269 48.806 37.723C48.806 38.979 49.479 39.569 50.324 39.442C51.129 39.32 51.544 38.64 51.144 37.696C51.0796 37.5439 51.0782 37.3724 51.1402 37.2193C51.2021 37.0662 51.3224 36.944 51.4745 36.8795C51.6266 36.8151 51.7981 36.8137 51.9512 36.8757C52.1043 36.9376 52.2266 37.0579 52.291 37.21C53.017 38.927 52.096 40.437 50.509 40.676C48.906 40.917 47.56 39.738 47.56 37.723C47.56 35.493 49.473 33.991 51.683 34.139ZM89.053 42.487L89.156 42.766C89.229 42.955 89.306 43.151 89.393 43.358L89.527 43.678L89.717 44.113L90.536 45.937C92.092 49.433 92.791 51.961 92.791 55.307C92.791 58.831 91.591 61.804 89.225 64.637L88.995 64.911L88.84 65.09L88.684 65.267L88.527 65.442L88.288 65.702L88.126 65.874L87.961 66.046L87.708 66.303L87.447 66.562L87.267 66.735L86.99 66.997L86.798 67.174L86.601 67.354L86.398 67.536L86.081 67.814L85.749 68.1L85.399 68.395L85.033 68.701L84.777 68.911L84.239 69.347L83.661 69.807L82.88 70.422L82.026 71.086L80.282 72.43L79.519 73.022L78.805 73.583L78.135 74.116L77.816 74.372L77.357 74.746L77.063 74.988L76.779 75.225L76.368 75.572L76.105 75.798L75.849 76.02L75.601 76.239L75.243 76.561L75.013 76.773L74.788 76.983L74.57 77.191L74.463 77.294L74.149 77.603L74.047 77.705L73.847 77.91L73.65 78.115L73.553 78.217L73.363 78.422L73.175 78.628L72.991 78.835L72.809 79.044L72.629 79.254L72.451 79.467L72.274 79.682L72.098 79.901L71.924 80.123C71.8659 80.1976 71.7914 80.258 71.7064 80.2995C71.6214 80.341 71.5281 80.3625 71.4335 80.3625C71.3389 80.3625 71.2456 80.341 71.1606 80.2995C71.0756 80.258 71.0012 80.1976 70.943 80.123L70.76 79.89L70.575 79.661L70.389 79.435L70.202 79.212C70.1705 79.1753 70.1388 79.1386 70.107 79.102L69.917 78.882L69.722 78.663L69.525 78.446L69.325 78.23L69.119 78.014L68.91 77.798L68.696 77.582C68.6598 77.5459 68.6234 77.5099 68.587 77.474L68.365 77.257L68.138 77.039L67.904 76.819L67.664 76.597L67.416 76.372L67.031 76.03L66.765 75.798L66.49 75.562L66.062 75.199L65.612 74.827L65.301 74.571L64.978 74.311L64.646 74.043L64.126 73.63L63.58 73.2L62.809 72.601L62.196 72.129L61.021 71.226L60.153 70.553L59.668 70.173L59.059 69.693L58.77 69.463L58.356 69.128L57.963 68.808L57.589 68.498L57.234 68.2L57.007 68.007L56.68 67.723L56.368 67.447L56.168 67.267L55.878 66.999L55.599 66.737L55.419 66.563L55.244 66.391L55.073 66.219L54.905 66.047L54.74 65.875L54.578 65.703L54.418 65.529L54.26 65.355L54.103 65.179L53.871 64.911L53.64 64.638C51.276 61.804 50.075 58.831 50.075 55.308C50.075 52.043 50.741 49.557 52.218 46.191L53.15 44.113L53.192 44.017L53.339 43.677L53.474 43.357C53.56 43.151 53.638 42.955 53.71 42.766L53.814 42.486L53.858 42.36C53.134 42.81 52.45 43.344 51.825 43.956C49.187 46.538 47.688 50.362 47.688 55.322C47.688 59.242 48.956 62.562 51.421 65.68L51.611 65.917L51.801 66.15L51.995 66.381L52.191 66.61L52.291 66.724L52.491 66.95L52.594 67.062L52.8 67.287L53.012 67.511L53.227 67.735L53.337 67.847L53.561 68.071L53.791 68.297L54.027 68.524L54.27 68.752L54.52 68.982L54.647 69.099L55.042 69.453L55.316 69.693L55.598 69.937L55.742 70.06L56.039 70.31L56.345 70.566L56.661 70.826L56.988 71.093L57.499 71.505L58.037 71.932L58.41 72.227L58.995 72.683L59.609 73.158L61.391 74.528L61.944 74.958L62.468 75.368L62.965 75.761L63.588 76.261L63.883 76.501L64.169 76.736L64.58 77.079L64.843 77.302L65.223 77.63L65.467 77.845L65.821 78.162L66.049 78.371L66.272 78.578L66.489 78.785L66.703 78.991L66.912 79.197L67.015 79.3L67.219 79.508L67.421 79.716L67.621 79.926L67.818 80.138C69.401 81.854 70.578 83.59 71.351 85.441L71.441 85.663L71.444 85.655C72.189 83.793 73.338 82.049 74.894 80.329L75.069 80.139L75.266 79.926L75.466 79.716L75.667 79.508L75.872 79.301L76.079 79.094L76.29 78.888L76.506 78.682L76.726 78.475L77.066 78.162L77.3 77.952L77.663 77.631L77.914 77.413L78.174 77.192L78.441 76.967L78.859 76.62L79.149 76.382L79.45 76.139L79.921 75.761L80.589 75.234L81.123 74.817L83.67 72.854L84.256 72.398L84.993 71.818L85.343 71.538L85.849 71.132L86.172 70.869L86.485 70.611L86.787 70.359L87.08 70.112L87.364 69.869L87.64 69.629L87.906 69.395L88.166 69.163L88.416 68.933L88.661 68.707L88.898 68.483L89.129 68.26L89.354 68.038L89.574 67.818L89.681 67.708L89.893 67.487L90.1 67.267L90.303 67.046L90.503 66.823L90.698 66.6L90.891 66.375L91.081 66.148L91.175 66.033L91.362 65.802L91.455 65.685C93.92 62.566 95.188 59.244 95.188 55.322C95.188 50.362 93.691 46.538 91.053 43.956C90.4569 43.3726 89.801 42.8538 89.096 42.408L88.956 42.215L89.053 42.487ZM114.433 68.777L114.193 69.062C113.988 69.302 113.773 69.546 113.546 69.796L113.268 70.097L112.98 70.405L112.681 70.717L112.371 71.035L111.797 71.615L109.876 73.514L109.344 74.045C109.742 75.362 110.282 76.722 110.959 78.169L111.16 78.593L111.3 78.883L111.597 79.485L111.815 79.92C112.188 78.158 112.623 76.375 113.135 74.47L113.429 73.401L113.948 71.564L114.91 68.184C114.759 68.379 114.599 68.576 114.433 68.777ZM27.936 68.189L29.268 72.872L29.662 74.292L29.711 74.47C30.221 76.37 30.656 78.15 31.028 79.907L31.08 79.804L31.317 79.331L31.466 79.03L31.677 78.593L31.779 78.381L31.976 77.959C32.608 76.589 33.116 75.296 33.494 74.042L33.342 73.889L32.649 73.199L31.157 71.725L30.63 71.197L30.47 71.035L30.161 70.717L29.862 70.405L29.574 70.097L29.297 69.796C29.07 69.546 28.854 69.302 28.649 69.062L28.409 68.777C28.2481 68.5837 28.0904 68.3876 27.936 68.189ZM82.916 40.586C76.735 40.586 72.076 45.388 72.076 50.614C72.076 54.605 75.488 57.401 78.987 57.401C82.107 57.401 84.085 55.429 84.263 52.784C84.433 50.242 82.857 48.25 80.284 48.25C78.479 48.25 77.402 49.09 77.023 50.462C76.699 51.632 76.989 52.999 77.589 53.542C77.6498 53.5968 77.6992 53.663 77.7345 53.7368C77.7697 53.8107 77.79 53.8908 77.7943 53.9725C77.7985 54.0542 77.7867 54.136 77.7594 54.2131C77.732 54.2902 77.6898 54.3612 77.635 54.422C77.5803 54.4828 77.5141 54.5322 77.4402 54.5675C77.3663 54.6027 77.2863 54.623 77.2045 54.6273C77.1228 54.6315 77.0411 54.6197 76.9639 54.5924C76.8868 54.565 76.8158 54.5228 76.755 54.468C75.775 53.582 75.382 51.724 75.823 50.128C76.35 48.222 77.914 47.002 80.284 47.002C83.627 47.002 85.721 49.647 85.504 52.868C85.284 56.152 82.78 58.649 78.987 58.649C75.842 58.649 72.767 56.747 71.472 53.752L71.439 53.676L71.409 53.75C70.129 56.705 67.116 58.599 64.017 58.648L63.893 58.649C60.094 58.649 57.589 56.152 57.37 52.867C57.155 49.647 59.25 47.002 62.592 47.002C64.957 47.002 66.516 48.219 67.043 50.123C67.483 51.714 67.096 53.57 66.127 54.463C66.0669 54.5185 65.9965 54.5616 65.9197 54.5899C65.8429 54.6181 65.7613 54.6309 65.6795 54.6276C65.5978 54.6242 65.5175 54.6048 65.4433 54.5704C65.3691 54.536 65.3024 54.4873 65.247 54.427C65.142 54.3123 65.0835 54.1626 65.0829 54.0071C65.0823 53.8516 65.1398 53.7014 65.244 53.586L65.284 53.546C65.881 52.995 66.167 51.626 65.844 50.456C65.464 49.087 64.391 48.25 62.592 48.25C60.022 48.25 58.442 50.243 58.612 52.784C58.789 55.43 60.767 57.401 63.893 57.401C67.389 57.401 70.803 54.601 70.803 50.614C70.803 45.392 66.143 40.586 59.96 40.586C58.3929 40.5926 56.8438 40.92 55.408 41.548C55.321 41.898 55.214 42.254 55.088 42.621C55.005 42.861 54.916 43.104 54.817 43.358L54.692 43.669L54.557 43.995L54.411 44.339L54.313 44.562L53.468 46.446C51.976 49.796 51.32 52.168 51.32 55.308C51.32 58.456 52.365 61.107 54.463 63.677L54.67 63.927L54.82 64.102L55.045 64.362L55.198 64.533L55.352 64.703L55.508 64.872L55.667 65.04L55.911 65.292L56.163 65.545L56.336 65.714L56.604 65.97L56.789 66.143L57.077 66.407L57.378 66.676L57.588 66.859L57.914 67.141L58.258 67.432L58.745 67.837L59.135 68.154L59.545 68.484L60.127 68.947L60.917 69.567L61.78 70.237L62.528 70.812L63.367 71.457L64.154 72.067L64.712 72.504L65.07 72.787L65.585 73.197L66.077 73.595L66.545 73.979L66.845 74.229L67.28 74.596L67.42 74.716L67.694 74.953L67.961 75.186L68.22 75.416L68.471 75.645L68.716 75.87L68.954 76.094L69.186 76.316L69.413 76.536L69.634 76.756L69.851 76.976L69.957 77.086L70.167 77.306L70.373 77.526L70.575 77.746L70.775 77.969L70.873 78.081L71.068 78.306L71.261 78.534L71.433 78.741L71.583 78.561L71.769 78.341L71.957 78.123L72.147 77.907L72.339 77.693L72.534 77.48L72.734 77.269L72.936 77.057L73.143 76.846L73.353 76.634L73.57 76.422L73.792 76.209L74.019 75.994L74.252 75.777L74.492 75.558L74.738 75.338L74.992 75.113L75.252 74.885L75.522 74.654L75.942 74.299L76.381 73.934L76.841 73.557L77.161 73.298L77.832 72.762L78.548 72.199L79.116 71.756L80.126 70.976L81.253 70.108L81.93 69.582L82.711 68.969L83.147 68.623L83.561 68.291L84.08 67.87L84.445 67.567L84.679 67.372L85.014 67.087L85.334 66.811L85.638 66.541L85.833 66.366L86.022 66.193L86.206 66.023L86.472 65.769L86.728 65.519L86.894 65.353L87.056 65.188L87.215 65.022L87.371 64.857L87.525 64.69L87.677 64.523L87.901 64.27L88.049 64.098L88.27 63.838C90.457 61.217 91.546 58.521 91.546 55.308C91.546 52.247 90.922 49.915 89.509 46.695L88.553 44.562L88.381 44.165C88.3569 44.1084 88.3329 44.0517 88.309 43.995L88.174 43.669L88.05 43.358C87.95 43.104 87.861 42.861 87.78 42.621C87.657 42.2659 87.5485 41.906 87.455 41.542C86.0233 40.9174 84.478 40.5921 82.916 40.586ZM70.954 59.196C71.0125 59.1287 71.0847 59.0748 71.1658 59.0378C71.247 59.0009 71.3351 58.9818 71.4242 58.9819C71.5134 58.982 71.6015 59.0013 71.6825 59.0384C71.7636 59.0755 71.8357 59.1296 71.894 59.197L71.93 59.24L72.083 59.427L72.233 59.617L72.313 59.722C72.621 60.127 72.928 60.572 73.216 61.042C73.776 61.958 74.193 62.862 74.409 63.729C74.515 64.151 74.57 64.559 74.57 64.951C74.57 65.788 74.239 66.59 73.649 67.181C73.3571 67.4743 73.0101 67.707 72.628 67.8658C72.2459 68.0247 71.8362 68.1066 71.4224 68.1067C71.0086 68.1069 70.5989 68.0254 70.2166 67.8669C69.8344 67.7084 69.4872 67.476 69.195 67.183C68.6037 66.5907 68.2718 65.7879 68.272 64.951C68.272 64.574 68.322 64.183 68.42 63.778C68.632 62.894 69.056 61.97 69.628 61.037C69.917 60.567 70.225 60.123 70.533 59.719L70.69 59.517L70.86 59.307L70.954 59.196ZM71.421 60.61L71.381 60.666C71.144 60.986 70.91 61.33 70.689 61.69C70.179 62.52 69.808 63.331 69.631 64.07C69.5587 64.3582 69.5204 64.6539 69.517 64.951C69.5178 65.4563 69.7189 65.9406 70.0761 66.2979C70.4334 66.6552 70.9178 66.8562 71.423 66.857C71.6732 66.8573 71.921 66.8081 72.1521 66.7124C72.3833 66.6166 72.5932 66.4762 72.7699 66.2991C72.9467 66.122 73.0867 65.9118 73.1819 65.6804C73.2772 65.4491 73.3258 65.2012 73.325 64.951C73.3212 64.6404 73.2796 64.3315 73.201 64.031C73.02 63.306 72.653 62.511 72.154 61.694C71.8972 61.275 71.6196 60.8691 71.322 60.478L71.421 60.61ZM73.246 34.102C75.196 32.22 77.932 31.424 81.319 32.081C81.785 32.171 81.983 32.729 81.679 33.094C81.5985 33.1903 81.5217 33.2897 81.449 33.392L81.355 33.528L81.257 33.678L81.153 33.843L80.983 34.123L80.462 35.013L80.319 35.244C78.848 37.589 77.315 38.489 74.444 37.912C74.2817 37.8795 74.1389 37.7839 74.0471 37.6461C73.9553 37.5084 73.922 37.3398 73.9545 37.1775C73.987 37.0152 74.0826 36.8724 74.2204 36.7806C74.3581 36.6888 74.5267 36.6555 74.689 36.688C76.961 37.145 78.049 36.525 79.265 34.581L79.395 34.368L79.461 34.258L79.968 33.393L80.111 33.159L79.942 33.142C77.494 32.919 75.549 33.612 74.109 35.001C72.841 36.225 72.065 37.97 72.045 39.196L72.042 39.253C71.975 40.013 70.813 39.995 70.8 39.196L70.796 39.084C70.733 37.871 69.966 36.194 68.736 35.006L68.643 34.918C67.179 33.554 65.208 32.894 62.732 33.158L62.855 33.359L62.997 33.599L63.447 34.365L63.577 34.579L63.707 34.782C64.875 36.568 65.964 37.129 68.157 36.688C68.3167 36.6616 68.4804 36.6982 68.6136 36.7902C68.7468 36.8822 68.8391 37.0223 68.8708 37.1811C68.9026 37.3398 68.8715 37.5046 68.784 37.6408C68.6966 37.777 68.5596 37.8739 68.402 37.911C65.39 38.518 63.852 37.499 62.309 34.891L61.863 34.128L61.747 33.935L61.639 33.761L61.538 33.603L61.441 33.46C61.4106 33.4159 61.3796 33.3723 61.348 33.329L61.256 33.208C61.226 33.1695 61.1953 33.1315 61.164 33.094C61.0944 33.0107 61.0476 32.9107 61.0284 32.8039C61.0093 32.697 61.0183 32.587 61.0547 32.4847C61.091 32.3824 61.1534 32.2913 61.2357 32.2205C61.3181 32.1497 61.4174 32.1017 61.524 32.081C64.912 31.424 67.649 32.223 69.6 34.107L69.717 34.223C70.4003 34.9173 70.9616 35.7219 71.377 36.603L71.421 36.7L71.468 36.597C71.9066 35.6657 72.5088 34.8206 73.246 34.102ZM70.911 25.104C70.9682 25.0211 71.0447 24.9533 71.1339 24.9065C71.2231 24.8597 71.3223 24.8352 71.423 24.8352C71.5237 24.8352 71.623 24.8597 71.7122 24.9065C71.8013 24.9533 71.8778 25.0211 71.935 25.104C73.855 27.889 73.525 31.161 71.937 33.489C71.88 33.5728 71.8033 33.6413 71.7137 33.6886C71.6241 33.736 71.5243 33.7607 71.423 33.7607C71.3217 33.7607 71.2219 33.736 71.1323 33.6886C71.0427 33.6413 70.9661 33.5728 70.909 33.489C69.319 31.159 68.989 27.889 70.911 25.104ZM71.422 26.699L71.395 26.757L71.279 27.023C70.629 28.62 70.735 30.308 71.36 31.741L71.423 31.881L71.43 31.864L71.537 31.619C72.147 30.133 72.204 28.387 71.45 26.757L71.422 26.699Z" fill="#D0AB7C"/>
</g>
<defs>
<filter id="filter0_d_205_2" x="0" y="0.110962" width="140.323" height="151.237" filterUnits="userSpaceOnUse" color-interpolation-filters="sRGB">
<feFlood flood-opacity="0" result="BackgroundImageFix"/>
<feColorMatrix in="SourceAlpha" type="matrix" values="0 0 0 0 0 0 0 0 0 0 0 0 0 0 0 0 0 0 127 0" result="hardAlpha"/>
<feOffset/>
<feColorMatrix type="matrix" values="0 0 0 0 0.815686 0 0 0 0 0.670588 0 0 0 0 0.486275 0 0 0 1 0"/>
<feBlend mode="normal" in2="BackgroundImageFix" result="effect1_dropShadow_205_2"/>
<feBlend mode="normal" in="SourceGraphic" in2="effect1_dropShadow_205_2" result="shape"/>
</filter>
<clipPath id="clip0_205_2">
<rect width="145" height="156" fill="white"/>
</clipPath>
</defs>
</svg>
