<svg width="560" height="151" viewBox="0 0 560 151" fill="none" xmlns="http://www.w3.org/2000/svg">
<g clip-path="url(#clip0_205_8)">
<path d="M327.21 150.54H286.83C286.65 149.38 286.5 148.34 286.36 147.41C295.13 143.08 294.14 143.37 294.16 134.7C294.23 108.87 294.19 83.04 294.19 57.21C294.19 55.88 294.21 54.54 294.16 53.21C293.97 48.39 293.47 47.79 288.67 46.29C288.04 46.09 287.44 45.8 286.59 45.46C286.55 44.56 286.51 43.65 286.46 42.41C295.86 39.19 305.12 36.02 314.89 32.67C316.13 34.29 317.39 35.93 318.93 37.95C319.85 37.64 321.08 37.3 322.25 36.83C328.49 34.3 334.92 32.78 341.68 32.75C355.46 32.69 365.19 39.29 370.07 52.21C373.49 61.27 374.27 70.69 373.37 80.26C373.05 83.73 372.47 87.22 371.55 90.57C366.5 108.83 353.51 117.72 334.06 116.13C329.13 115.73 324.25 114.73 318.69 113.91C318.69 116 318.69 117.95 318.69 119.9C318.69 125.57 318.67 131.23 318.69 136.9C318.72 143.33 319.32 144.13 325.36 146.27C325.97 146.49 326.54 146.84 327.23 147.18V150.56L327.21 150.54ZM319.33 44.51V107.41C322.32 108.01 325.03 108.73 327.78 109.06C335.42 109.97 340.18 107.3 343.3 100.22C344.49 97.51 345.34 94.58 345.89 91.66C347.74 81.77 347.39 71.78 346.59 61.82C346.35 58.86 345.66 55.89 344.82 53.03C341.92 43.08 334.73 39.26 324.82 42.3C322.95 42.87 321.17 43.76 319.34 44.51H319.33Z" fill="black"/>
<path d="M71.5 12.98C71.13 19.57 70.76 26.17 70.39 32.6C67.86 34.26 66.76 32.88 65.81 31.15C63.81 27.5 61.83 23.84 59.84 20.19C54.32 10.05 43.17 6.31004 32.59 11.05C22.05 15.77 19.65 30.53 28.44 38.68C31.79 41.78 36.04 44.01 40.11 46.19C44.79 48.7 49.81 50.58 54.55 53C57.5 54.5 60.27 56.4 63 58.28C74.17 65.99 77.56 77.04 75.47 89.81C73.44 102.16 65.41 109.84 53.87 113.74C40.67 118.19 27.28 117.47 14.01 113.92C9.38999 112.68 4.95999 110.74 -0.0100098 108.96C0.35999 100.79 0.70999 93.08 1.05999 85.21C2.31999 85.1 3.10999 85.04 4.26999 84.94C5.66999 87.73 7.05999 90.53 8.47999 93.32C9.76999 95.84 11.05 98.36 12.43 100.83C14.99 105.43 18.95 108.32 23.92 109.85C29.46 111.56 35.09 111.69 40.66 110.13C47.15 108.31 51.4 104.05 52.63 97.4C53.88 90.65 52.85 84.2 46.9 79.9C42.89 77 38.45 74.6 33.95 72.51C26.53 69.06 19.22 65.5 12.86 60.27C2.14999 51.45 -0.58001 40.02 2.36999 27C3.85999 20.45 7.91999 15.4 13.34 11.4C28.43 0.280036 57.77 1.89004 71.5 12.98Z" fill="black"/>
<path d="M451.32 93.98C452.04 94.58 452.88 95.29 453.88 96.13C452.56 100 449.99 102.84 447.34 105.53C431.31 121.8 400.95 119.49 387.67 100.93C380.49 90.89 379.06 79.47 380.53 67.53C383.42 44.06 406.36 28.02 430.91 33.93C447.9 38.02 458.44 56.54 453.1 73.87H406.72C406.27 82.55 407.27 90.23 412.26 96.69C414.19 99.18 417.22 101.46 420.2 102.39C430.17 105.49 439.64 104.49 447.66 96.97C448.63 96.06 449.59 95.14 450.57 94.24C450.68 94.14 450.88 94.14 451.33 93.99L451.32 93.98ZM431.21 68.07C432.09 60.13 432.36 52.56 429.9 45.16C428.52 41 425.56 38.55 421.06 38.28C416.52 38 412.85 39.58 410.68 43.71C406.68 51.31 406.5 59.51 406.55 68.08H431.2L431.21 68.07Z" fill="black"/>
<path d="M200.33 73.72C184.76 74.39 169.33 73.46 153.74 74.25C153.28 81.88 154.39 88.7 157.97 94.92C161.11 100.38 166.2 103.02 172.33 103.7C181.43 104.71 189.57 102.75 195.96 95.7C196.52 95.08 196.88 94.3 197.52 93.31C199.03 94.59 199.96 95.38 201.09 96.33C196.27 105.33 189.37 111.51 179.83 114.41C170.65 117.2 161.4 117 152.31 113.87C141.95 110.3 134.56 103.41 130.54 93.23C125.89 81.46 125.56 69.43 130.22 57.61C138.06 37.73 161.55 27.53 181.6 35.03C196.36 40.55 204.89 57.66 200.33 73.7V73.72ZM178.05 68.05C179.32 60.53 179.39 53.15 177.2 45.9C175.67 40.83 172.6 38.53 167.9 38.26C163.03 37.98 159.23 40.15 157.16 44.79C153.91 52.08 153.4 59.8 153.67 68.05H178.05Z" fill="black"/>
<path d="M280.83 73.85H234.33C234.47 83.24 235.04 91.8001 241.64 98.4201C243.65 100.44 246.52 102.09 249.29 102.8C259.22 105.34 268.45 104.04 276.06 96.4001C276.76 95.6901 277.5 95.02 278.23 94.34C278.35 94.23 278.51 94.1701 278.97 93.9101C279.82 94.6401 280.76 95.44 281.86 96.38C277.2 105.01 270.63 111.11 261.53 114.11C250.85 117.63 240.2 117.07 229.85 112.63C224.24 110.22 219.62 106.47 215.94 101.57C205.02 86.9801 205.06 63.0901 216.06 48.6501C226.27 35.2501 244.19 29.3601 260.27 34.4101C272.56 38.2701 279.59 46.9201 281.75 59.5001C282.85 65.9001 282.56 68.3901 280.85 73.8601L280.83 73.85ZM258.87 68.09C259.82 60 260.1 52.56 257.8 45.28C256.48 41.1 253.5 38.6401 249.02 38.2901C244.47 37.9301 240.72 39.5 238.56 43.6C234.57 51.17 234.36 59.42 234.27 68.09H258.88H258.87Z" fill="black"/>
<path d="M533.63 73.96H487.12C487.36 82.99 488.01 91.21 493.93 97.81C495.74 99.83 498.32 101.65 500.89 102.41C510.87 105.36 520.33 104.55 528.33 96.99C529.4 95.97 530.49 94.97 531.77 93.76C532.74 94.56 533.6 95.26 534.65 96.13C533.14 100.23 530.4 103.32 527.44 106.18C511.15 121.88 481.28 119.07 468.18 100.66C464.54 95.54 462.31 89.79 461.46 83.63C459.61 70.12 461.25 57.42 470.6 46.58C481.41 34.04 500.27 29.22 515.7 35.19C530.39 40.89 539.05 59.06 533.62 73.96H533.63ZM487.04 68.03H511.8C512.86 60.19 513.03 52.74 510.8 45.45C509.53 41.29 506.63 38.7 502.12 38.32C497.37 37.92 493.51 39.52 491.31 43.88C487.55 51.36 487.31 59.47 487.04 68.03Z" fill="black"/>
<path d="M121.51 110.53V113.45H81.5199V110.59C82.5699 110.1 83.5799 109.57 84.6299 109.13C87.5799 107.9 89.0099 105.7 88.9999 102.52C88.9899 99.69 89.0199 96.86 89.0199 94.03C89.0199 69.89 89.0199 45.74 89.0199 21.6C89.0199 20.27 88.9699 18.94 89.0099 17.6C89.0999 14.34 87.7299 12.2 84.4599 11.39C83.5099 11.16 82.5999 10.73 81.3999 10.29C81.4399 9.32 81.4799 8.4 81.5399 7.16C91.5199 4.78 101.36 2.43 111.53 0C112.4 0.62 113.44 1.37 114.14 1.87C114.14 8.28 114.14 14.25 114.14 20.23C114.16 47.37 114.15 74.51 114.23 101.64C114.25 107.16 115.09 108.01 121.52 110.52L121.51 110.53Z" fill="black"/>
<path d="M546.56 37.4399C539.41 37.3899 533.84 31.8299 533.86 24.7499C533.88 17.7199 539.53 12.0999 546.62 12.0799C553.86 12.0499 559.81 17.9799 559.67 25.0699C559.54 31.9499 553.66 37.4899 546.55 37.4399H546.56ZM556.48 24.9899C556.59 19.3799 552.49 15.0799 546.9 14.9499C541.38 14.8199 537.03 19.0199 536.92 24.6099C536.81 30.1299 541.02 34.5499 546.53 34.6699C552.07 34.7899 556.38 30.5999 556.49 24.9999L556.48 24.9899Z" fill="black"/>
<path d="M550.02 19.0501C552.58 21.9701 551.13 24.1501 549.83 26.3301C550.14 27.6001 550.44 28.8501 550.85 30.5101C549.95 30.5101 549.08 30.7601 548.83 30.4701C547.88 29.3801 547.12 28.1101 545.96 26.4201C545.25 28.0701 544.72 29.3201 544.06 30.8501C543.48 30.4801 542.57 30.1701 542.56 29.8401C542.46 26.3801 542.5 22.9301 542.5 19.2301C545.01 17.8301 547.52 18.3001 550.02 19.0501ZM549.63 22.4001C547.8 21.3301 546.96 20.8401 545.51 19.9901V24.5801C546.92 23.8401 547.76 23.3901 549.63 22.4001Z" fill="black"/>
</g>
<defs>
<clipPath id="clip0_205_8">
<rect width="559.68" height="150.54" fill="white"/>
</clipPath>
</defs>
</svg>
